<svg width="64" height="18" viewBox="0 0 64 18" fill="none" xmlns="http://www.w3.org/2000/svg">
<path d="M1.876 14V4.816H3.024V13.006H7.574V14H1.876ZM12.5945 14.168C11.9972 14.168 11.4419 14.028 10.9285 13.748C10.4245 13.468 10.0139 13.062 9.69653 12.53C9.38853 11.998 9.23453 11.3587 9.23453 10.612C9.23453 9.84667 9.38853 9.198 9.69653 8.666C10.0139 8.134 10.4245 7.728 10.9285 7.448C11.4419 7.168 11.9972 7.028 12.5945 7.028C13.1919 7.028 13.7425 7.168 14.2465 7.448C14.7599 7.728 15.1705 8.134 15.4785 8.666C15.7959 9.198 15.9545 9.84667 15.9545 10.612C15.9545 11.3587 15.7959 11.998 15.4785 12.53C15.1705 13.062 14.7599 13.468 14.2465 13.748C13.7425 14.028 13.1919 14.168 12.5945 14.168ZM12.5945 13.216C13.0332 13.216 13.4159 13.1087 13.7425 12.894C14.0692 12.67 14.3212 12.362 14.4985 11.97C14.6759 11.578 14.7645 11.1253 14.7645 10.612C14.7645 10.0893 14.6759 9.632 14.4985 9.24C14.3212 8.83867 14.0692 8.53067 13.7425 8.316C13.4159 8.092 13.0332 7.98 12.5945 7.98C12.1559 7.98 11.7732 8.092 11.4465 8.316C11.1292 8.53067 10.8772 8.83867 10.6905 9.24C10.5132 9.632 10.4245 10.0893 10.4245 10.612C10.4245 11.1253 10.5132 11.578 10.6905 11.97C10.8772 12.362 11.1292 12.67 11.4465 12.894C11.7732 13.1087 12.1559 13.216 12.5945 13.216ZM20.9331 17.136C20.2704 17.136 19.7057 17.0613 19.2391 16.912C18.7724 16.7627 18.4131 16.548 18.1611 16.268C17.9184 15.988 17.7971 15.6473 17.7971 15.246C17.7971 14.9753 17.8904 14.7047 18.0771 14.434C18.2731 14.1727 18.5531 13.9393 18.9171 13.734V13.678C18.7397 13.5753 18.5764 13.4353 18.4271 13.258C18.2871 13.0807 18.2171 12.8473 18.2171 12.558C18.2171 12.3433 18.2871 12.124 18.4271 11.9C18.5671 11.6667 18.7677 11.4613 19.0291 11.284V11.228C18.7957 11.0507 18.5951 10.8127 18.4271 10.514C18.2684 10.2153 18.1891 9.86533 18.1891 9.464C18.1891 8.96933 18.3104 8.54 18.5531 8.176C18.8051 7.812 19.1317 7.532 19.5331 7.336C19.9437 7.13067 20.3871 7.028 20.8631 7.028C21.2457 7.028 21.5817 7.084 21.8711 7.196H24.6851V8.134H22.9211C23.0797 8.29267 23.2151 8.49333 23.3271 8.736C23.4391 8.97867 23.4951 9.23533 23.4951 9.506C23.4951 9.99133 23.3784 10.4113 23.1451 10.766C22.9117 11.1113 22.5944 11.3773 22.1931 11.564C21.8011 11.7507 21.3577 11.844 20.8631 11.844C20.6857 11.844 20.4944 11.8253 20.2891 11.788C20.0931 11.7413 19.9017 11.676 19.7151 11.592C19.5471 11.6947 19.4164 11.8113 19.3231 11.942C19.2297 12.0727 19.1831 12.2173 19.1831 12.376C19.1831 12.6373 19.3044 12.8333 19.5471 12.964C19.7991 13.0947 20.1491 13.16 20.5971 13.16H22.1231C23.0004 13.16 23.6491 13.2813 24.0691 13.524C24.4984 13.7667 24.7131 14.1773 24.7131 14.756C24.7131 15.176 24.5591 15.568 24.2511 15.932C23.9431 16.296 23.5044 16.5853 22.9351 16.8C22.3751 17.024 21.7077 17.136 20.9331 17.136ZM20.8631 11.074C21.1524 11.074 21.4137 11.0087 21.6471 10.878C21.8897 10.7473 22.0811 10.5607 22.2211 10.318C22.3611 10.0753 22.4311 9.79067 22.4311 9.464C22.4311 9.14667 22.3611 8.87133 22.2211 8.638C22.0811 8.39533 21.8897 8.20867 21.6471 8.078C21.4137 7.938 21.1524 7.868 20.8631 7.868C20.5831 7.868 20.3217 7.938 20.0791 8.078C19.8457 8.20867 19.6544 8.39533 19.5051 8.638C19.3651 8.87133 19.2951 9.14667 19.2951 9.464C19.2951 9.79067 19.3651 10.0753 19.5051 10.318C19.6544 10.5607 19.8457 10.7473 20.0791 10.878C20.3217 11.0087 20.5831 11.074 20.8631 11.074ZM21.0171 16.296C21.5491 16.296 22.0064 16.2307 22.3891 16.1C22.7717 15.9693 23.0657 15.8013 23.2711 15.596C23.4764 15.3907 23.5791 15.1713 23.5791 14.938C23.5791 14.6113 23.4484 14.392 23.1871 14.28C22.9351 14.168 22.5477 14.112 22.0251 14.112H20.6951C20.4991 14.112 20.3124 14.1027 20.1351 14.084C19.9671 14.0653 19.8084 14.0373 19.6591 14C19.3417 14.1773 19.1177 14.3593 18.9871 14.546C18.8564 14.742 18.7911 14.938 18.7911 15.134C18.7911 15.4887 18.9777 15.7687 19.3511 15.974C19.7337 16.1887 20.2891 16.296 21.0171 16.296ZM29.6076 14V8.134H26.4436V7.196H30.7556V14H29.6076ZM30.0556 5.768C29.7943 5.768 29.5749 5.68867 29.3976 5.53C29.2203 5.362 29.1316 5.14267 29.1316 4.872C29.1316 4.60133 29.2203 4.38667 29.3976 4.228C29.5749 4.06 29.7943 3.976 30.0556 3.976C30.3169 3.976 30.5363 4.06 30.7136 4.228C30.8909 4.38667 30.9796 4.60133 30.9796 4.872C30.9796 5.14267 30.8909 5.362 30.7136 5.53C30.5363 5.68867 30.3169 5.768 30.0556 5.768ZM34.8801 14V7.196H35.8321L35.9301 8.358H35.9861C36.3408 7.97533 36.7235 7.658 37.1341 7.406C37.5448 7.154 38.0161 7.028 38.5481 7.028C39.3508 7.028 39.9435 7.26133 40.3261 7.728C40.7088 8.19467 40.9001 8.876 40.9001 9.772V14H39.7521V9.926C39.7521 9.282 39.6308 8.806 39.3881 8.498C39.1455 8.18067 38.7441 8.022 38.1841 8.022C37.7828 8.022 37.4235 8.12467 37.1061 8.33C36.7888 8.53533 36.4295 8.84333 36.0281 9.254V14H34.8801Z" fill="#842A3A"/>
<path d="M55 2.4875C55.1359 2.4875 55.2663 2.5415 55.3624 2.63761C55.4585 2.73372 55.5125 2.86408 55.5125 3C55.5125 3.13592 55.4585 3.26628 55.3624 3.36239C55.2663 3.4585 55.1359 3.5125 55 3.5125C53.5446 3.5125 52.1489 4.09065 51.1198 5.11975C50.0906 6.14886 49.5125 7.54462 49.5125 9C49.5125 10.4554 50.0906 11.8511 51.1198 12.8802C52.1489 13.9094 53.5446 14.4875 55 14.4875C55.1359 14.4875 55.2663 14.5415 55.3624 14.6376C55.4585 14.7337 55.5125 14.8641 55.5125 15C55.5125 15.1359 55.4585 15.2663 55.3624 15.3624C55.2663 15.4585 55.1359 15.5125 55 15.5125C53.2728 15.5125 51.6163 14.8264 50.395 13.605C49.1736 12.3837 48.4875 10.7272 48.4875 9C48.4875 7.27278 49.1736 5.6163 50.395 4.39497C51.6163 3.17364 53.2728 2.4875 55 2.4875Z" fill="#842A3A" stroke="#FDF2DB" stroke-width="0.1"/>
<path d="M59.1121 11.6121L59.1121 11.6122L61.3621 9.36217L59.1121 11.6121ZM59.1121 11.6121L59.1109 11.6134M59.1121 11.6121L59.1109 11.6134M59.1109 11.6134C59.064 11.6638 59.0074 11.7042 58.9446 11.7322C58.8817 11.7602 58.8138 11.7752 58.745 11.7765C58.6762 11.7777 58.6078 11.765 58.544 11.7392C58.4802 11.7135 58.4222 11.6751 58.3736 11.6264C58.3249 11.5778 58.2865 11.5198 58.2608 11.456C58.235 11.3922 58.2223 11.3238 58.2235 11.255C58.2248 11.1862 58.2398 11.1183 58.2678 11.0555C58.2958 10.9926 58.3362 10.936 58.3866 10.8891L58.3866 10.8891M59.1109 11.6134L58.3866 10.8891M58.3866 10.8891L58.3879 10.8879M58.3866 10.8891L58.3879 10.8879M58.3879 10.8879L59.6779 9.59786L59.7632 9.51251M58.3879 10.8879L59.7632 9.51251M59.7632 9.51251H59.6425M59.7632 9.51251H59.6425M59.6425 9.51251H53.5C53.3641 9.51251 53.2337 9.45851 53.1376 9.3624C53.0415 9.26629 52.9875 9.13593 52.9875 9.00001C52.9875 8.86408 53.0415 8.73373 53.1376 8.63762C53.2337 8.5415 53.3641 8.48751 53.5 8.48751H59.6425H59.7632M59.6425 9.51251L59.7632 8.48751M59.7632 8.48751L59.6779 8.40215M59.7632 8.48751L59.6779 8.40215M59.6779 8.40215L58.3885 7.11279M59.6779 8.40215L58.3885 7.11279M58.3885 7.11279C58.2983 7.01571 58.2493 6.88748 58.2516 6.755C58.254 6.62223 58.3077 6.49555 58.4016 6.40165C58.4955 6.30775 58.6222 6.25396 58.755 6.25162C58.8875 6.24928 59.0157 6.29835 59.1128 6.3885L61.3621 8.63784L58.3885 7.11279ZM61.512 9.00001C61.512 8.8642 61.4581 8.73395 61.3621 8.63786L61.512 9.00001ZM61.512 9.00001C61.512 9.13581 61.4581 9.26606 61.3621 9.36215L61.512 9.00001Z" fill="#842A3A" stroke="#FDF2DB" stroke-width="0.1"/>
</svg>
