<svg width="58" height="18" viewBox="0 0 58 18" fill="none" xmlns="http://www.w3.org/2000/svg">
<path d="M28.27 14.168C27.598 14.168 26.9773 14.0467 26.408 13.804C25.848 13.552 25.358 13.2207 24.938 12.81L25.638 11.998C25.9833 12.3433 26.3847 12.6233 26.842 12.838C27.3087 13.0433 27.8033 13.146 28.326 13.146C28.9607 13.146 29.4507 13.0107 29.796 12.74C30.1507 12.4693 30.328 12.1193 30.328 11.69C30.328 11.3633 30.2533 11.102 30.104 10.906C29.964 10.71 29.768 10.5467 29.516 10.416C29.2733 10.2853 28.9933 10.1547 28.676 10.024L27.36 9.45C27.052 9.31933 26.744 9.156 26.436 8.96C26.1373 8.764 25.8853 8.51667 25.68 8.218C25.4747 7.91 25.372 7.532 25.372 7.084C25.372 6.61733 25.498 6.202 25.75 5.838C26.0113 5.46467 26.3707 5.17533 26.828 4.97C27.2853 4.75533 27.8033 4.648 28.382 4.648C28.9607 4.648 29.4927 4.75533 29.978 4.97C30.4633 5.17533 30.874 5.446 31.21 5.782L30.594 6.538C30.2953 6.26733 29.964 6.05733 29.6 5.908C29.236 5.74933 28.816 5.67 28.34 5.67C27.808 5.67 27.3787 5.79133 27.052 6.034C26.7253 6.26733 26.562 6.594 26.562 7.014C26.562 7.30333 26.6413 7.54133 26.8 7.728C26.968 7.91467 27.178 8.06867 27.43 8.19C27.682 8.31133 27.9387 8.428 28.2 8.54L29.488 9.1C29.8707 9.24933 30.216 9.43133 30.524 9.646C30.832 9.85133 31.0747 10.108 31.252 10.416C31.4293 10.724 31.518 11.102 31.518 11.55C31.518 12.0353 31.3873 12.4787 31.126 12.88C30.8647 13.272 30.4913 13.5847 30.006 13.818C29.5207 14.0513 28.942 14.168 28.27 14.168ZM33.6965 14V4.032H34.8445V6.748L34.7745 8.358H34.8165C35.1619 7.98467 35.5399 7.672 35.9505 7.42C36.3612 7.15867 36.8325 7.028 37.3645 7.028C38.1672 7.028 38.7599 7.26133 39.1425 7.728C39.5252 8.19467 39.7165 8.876 39.7165 9.772V14H38.5685V9.926C38.5685 9.282 38.4472 8.806 38.2045 8.498C37.9619 8.18067 37.5605 8.022 37.0005 8.022C36.5992 8.022 36.2399 8.12467 35.9225 8.33C35.6052 8.53533 35.2459 8.84333 34.8445 9.254V14H33.6965ZM44.9891 14.168C44.3917 14.168 43.8364 14.028 43.3231 13.748C42.8191 13.468 42.4084 13.062 42.0911 12.53C41.7831 11.998 41.6291 11.3587 41.6291 10.612C41.6291 9.84667 41.7831 9.198 42.0911 8.666C42.4084 8.134 42.8191 7.728 43.3231 7.448C43.8364 7.168 44.3917 7.028 44.9891 7.028C45.5864 7.028 46.1371 7.168 46.6411 7.448C47.1544 7.728 47.5651 8.134 47.8731 8.666C48.1904 9.198 48.3491 9.84667 48.3491 10.612C48.3491 11.3587 48.1904 11.998 47.8731 12.53C47.5651 13.062 47.1544 13.468 46.6411 13.748C46.1371 14.028 45.5864 14.168 44.9891 14.168ZM44.9891 13.216C45.4277 13.216 45.8104 13.1087 46.1371 12.894C46.4637 12.67 46.7157 12.362 46.8931 11.97C47.0704 11.578 47.1591 11.1253 47.1591 10.612C47.1591 10.0893 47.0704 9.632 46.8931 9.24C46.7157 8.83867 46.4637 8.53067 46.1371 8.316C45.8104 8.092 45.4277 7.98 44.9891 7.98C44.5504 7.98 44.1677 8.092 43.8411 8.316C43.5237 8.53067 43.2717 8.83867 43.0851 9.24C42.9077 9.632 42.8191 10.0893 42.8191 10.612C42.8191 11.1253 42.9077 11.578 43.0851 11.97C43.2717 12.362 43.5237 12.67 43.8411 12.894C44.1677 13.1087 44.5504 13.216 44.9891 13.216ZM50.4856 16.87V7.196H51.4376L51.5356 8.064H51.5776C51.8949 7.76533 52.2589 7.518 52.6696 7.322C53.0896 7.126 53.5096 7.028 53.9296 7.028C54.5456 7.028 55.0589 7.17267 55.4696 7.462C55.8896 7.742 56.2069 8.14333 56.4216 8.666C56.6363 9.17933 56.7436 9.79067 56.7436 10.5C56.7436 11.2653 56.5989 11.9233 56.3096 12.474C56.0203 13.0247 55.6423 13.4447 55.1756 13.734C54.7089 14.0233 54.2003 14.168 53.6496 14.168C53.3416 14.168 53.0009 14.0933 52.6276 13.944C52.2636 13.7853 51.9276 13.566 51.6196 13.286H51.5776L51.6336 14.574V16.87H50.4856ZM53.4536 13.202C53.8549 13.202 54.2143 13.0947 54.5316 12.88C54.8489 12.6653 55.0963 12.3573 55.2736 11.956C55.4603 11.5453 55.5536 11.06 55.5536 10.5C55.5536 10.0053 55.4883 9.57133 55.3576 9.198C55.2269 8.81533 55.0216 8.52133 54.7416 8.316C54.4616 8.10133 54.0929 7.994 53.6356 7.994C53.3276 7.994 53.0009 8.078 52.6556 8.246C52.3196 8.40467 51.9789 8.66133 51.6336 9.016V12.404C51.9603 12.6933 52.2869 12.8987 52.6136 13.02C52.9496 13.1413 53.2296 13.202 53.4536 13.202Z" fill="#842A3A"/>
<path d="M11.8125 7.875V4.5C11.8125 3.75408 11.5162 3.03871 10.9888 2.51126C10.4613 1.98382 9.74597 1.6875 9.00005 1.6875C8.25413 1.6875 7.53876 1.98382 7.01131 2.51126C6.48387 3.03871 6.18755 3.75408 6.18755 4.5V7.875M14.7046 6.38025L15.6518 15.3802C15.7043 15.879 15.3143 16.3125 14.8125 16.3125H3.18755C3.06921 16.3126 2.95216 16.2879 2.84401 16.2398C2.73586 16.1917 2.63904 16.1215 2.55982 16.0336C2.4806 15.9456 2.42076 15.842 2.38419 15.7295C2.34762 15.6169 2.33514 15.4979 2.34755 15.3802L3.29555 6.38025C3.31742 6.17292 3.41527 5.98103 3.57024 5.84157C3.72521 5.70211 3.92632 5.62496 4.1348 5.625H13.8653C14.2973 5.625 14.6596 5.95125 14.7046 6.38025ZM6.4688 7.875C6.4688 7.94959 6.43917 8.02113 6.38642 8.07387C6.33368 8.12662 6.26214 8.15625 6.18755 8.15625C6.11296 8.15625 6.04142 8.12662 5.98868 8.07387C5.93593 8.02113 5.9063 7.94959 5.9063 7.875C5.9063 7.80041 5.93593 7.72887 5.98868 7.67613C6.04142 7.62338 6.11296 7.59375 6.18755 7.59375C6.26214 7.59375 6.33368 7.62338 6.38642 7.67613C6.43917 7.72887 6.4688 7.80041 6.4688 7.875ZM12.0938 7.875C12.0938 7.94959 12.0642 8.02113 12.0114 8.07387C11.9587 8.12662 11.8871 8.15625 11.8125 8.15625C11.738 8.15625 11.6664 8.12662 11.6137 8.07387C11.5609 8.02113 11.5313 7.94959 11.5313 7.875C11.5313 7.80041 11.5609 7.72887 11.6137 7.67613C11.6664 7.62338 11.738 7.59375 11.8125 7.59375C11.8871 7.59375 11.9587 7.62338 12.0114 7.67613C12.0642 7.72887 12.0938 7.80041 12.0938 7.875Z" stroke="#842A3A" stroke-linecap="round" stroke-linejoin="round"/>
</svg>
